HIERARCHY
ROOT Hips
{
	OFFSET	0.00	0.00	0.00
	CHANNELS 6 Xposition Yposition Zposition Zrotation Xrotation Yrotation
	JOINT Chest
	{
		OFFSET	 0.000000	 4.570000	 0.000000
		CHANNELS 3 Zrotation Xrotation Yrotation
		JOINT Neck
		{
			OFFSET	 0.000000	 17.620001	 0.000000
			CHANNELS 3 Zrotation Xrotation Yrotation
			JOINT Head
			{
				OFFSET	 0.000000	 5.190000	 0.000000
				CHANNELS 3 Zrotation Xrotation Yrotation
				End Site 
				{
					OFFSET	 0.000000	 4.140008	 0.000000
				}
			}
		}
		JOINT LeftCollar
		{
			OFFSET	 1.060000	 15.330000	 01.760000
			CHANNELS 3 Zrotation Xrotation Yrotation
			JOINT LeftShoulder
			{
				OFFSET	 5.00000	 0.000000	 0.000000
				CHANNELS 3 Zrotation Xrotation Yrotation
				JOINT LeftElbow
				{
					OFFSET	 0.000000	-11.90000	 0.000000
					CHANNELS 3 Zrotation Xrotation Yrotation
					JOINT LeftWrist
					{
						OFFSET	 0.000000	-9.520000	 0.000000
						CHANNELS 3 Zrotation Xrotation Yrotation
						End Site 
						{
							OFFSET	 0.000000	-7.0	 0.000000
						}
					}
				}
			}
		}
		JOINT RightCollar
		{
			OFFSET	-1.060000	 15.330000	 01.760000
			CHANNELS 3 Zrotation Xrotation Yrotation
			JOINT RightShoulder
			{
				OFFSET	-5.000000	 0.000000	 0.000000
				CHANNELS 3 Zrotation Xrotation Yrotation
				JOINT RightElbow
				{
					OFFSET	 0.000000	-11.900000	 0.000000
					CHANNELS 3 Zrotation Xrotation Yrotation
					JOINT RightWrist
					{
						OFFSET	 0.000000	-9.520000	 0.000000
						CHANNELS 3 Zrotation Xrotation Yrotation
						End Site 
						{
							OFFSET	 0.000000	-7.0	 0.000000
						}
					}
				}
			}
		}
	}
	JOINT LeftHip
	{
		OFFSET	 3.430000	 0.000000	 0.000000
		CHANNELS 3 Zrotation Xrotation Yrotation
		JOINT LeftKnee
		{
			OFFSET	 0.000000	-19.0	 0.000000
			CHANNELS 3 Zrotation Xrotation Yrotation
			JOINT LeftAnkle
			{
				OFFSET	 0.000000	-15.00000	 0.000000
				CHANNELS 3 Zrotation Xrotation Yrotation
				End Site 
				{
					OFFSET	 0.000000	-3.0	 0.000000
				}
			}
		}
	}
	JOINT RightHip
	{
		OFFSET	-3.430000	 0.000000	 0.000000
		CHANNELS 3 Zrotation Xrotation Yrotation
		JOINT RightKnee
		{
			OFFSET	 0.000000	-19.0	 0.000000
			CHANNELS 3 Zrotation Xrotation Yrotation
			JOINT RightAnkle
			{
				OFFSET	 0.000000	-15.00000	 0.000000
				CHANNELS 3 Zrotation Xrotation Yrotation
				End Site 
				{
					OFFSET	 0.000000	-3.0	 0.000000
				}
			}
		}
	}
}
MOTION
Frames: 10
Frame Time: 0.033333333
0.000000	30.287383	0.000000	-8.438998	0.466848	77.200670	-2.076192	10.452765	6.052447	-348.289641	-344.819167	-0.522128	353.638936	337.801503	-0.266819	-329.848295	-335.868287	-16.859553	0.741038	-1.440378	6.678557	135.946442	-120.588434	116.273258	-5.731229	-3.757220	56.255988	-358.083422	-335.507953	-10.472941	-40.914898	0.031368	71.701473	90.066260	-153.443419	119.244212	-174.147334	174.571871	101.331181	3.009340	5.205130	18.342223	-61.030027	104.114586	64.007955	-27.262937	12.531105	3.338791	7.532437	-26.245148	5.801224	-353.870780	-304.041600	-3.252977	-334.261690	343.360813	-2.544693	
-0.241510	29.635909	0.181776	-9.094346	-1.751926	76.518443	0.274724	10.570392	6.134852	-348.955530	-346.474778	-0.157729	-6.655719	-21.610986	0.140208	-328.027202	-335.801761	-15.535704	-2.048856	3.286606	5.512129	143.623875	-131.472149	122.327360	-9.081058	-0.412728	55.643948	-358.424057	-335.450061	-9.563386	-43.670466	-11.683196	68.102674	83.312473	-159.266442	104.593525	-172.689977	178.855793	101.151779	7.485768	-3.994479	20.449212	-34.265378	116.662824	35.745903	-7.373764	12.486704	4.928169	10.688406	-24.712505	7.599747	-352.092472	-299.373849	-4.765643	-333.896985	338.256093	-1.724975	
-0.453829	29.842629	0.218707	-10.629013	-2.461167	75.030849	1.679015	9.609570	6.258020	10.077618	12.274577	0.084935	-6.693646	-19.547473	0.074442	-330.342227	-335.518089	-10.931193	0.503612	9.697105	6.842004	139.942308	-140.584851	116.260635	-8.073095	-1.612363	54.978537	358.286497	-335.356432	-7.250458	-44.010808	-22.953805	65.654993	-282.797718	189.616223	113.017928	-177.636987	178.526223	100.349594	10.054802	-14.473908	22.570981	-29.796355	122.065709	30.499160	8.913088	13.663859	5.122228	12.743929	-20.536841	7.977837	-356.483272	-301.089320	-1.409004	-337.832103	335.018229	-3.433586	
-0.444196	30.851458	0.052735	-11.056014	-1.884881	72.737647	2.221701	9.351819	6.310122	7.368583	11.175838	0.203730	-4.598721	-18.293334	1.506186	-337.665036	-335.277011	-3.226918	7.499524	17.160749	10.824662	131.789999	-146.712022	101.996237	-6.251567	-4.326926	54.592256	352.560968	-335.285917	-3.370920	-43.568037	-32.067273	63.796492	-285.851687	183.391325	117.914415	-183.914108	-183.861079	99.492802	9.884944	-21.313110	22.861554	-34.384384	116.126641	35.917645	14.803297	13.349288	0.256934	12.722214	-12.484125	6.045744	-4.085317	51.318581	3.519069	25.179058	-21.625826	0.174461	
-0.296325	32.188226	-0.390749	-13.216163	1.992803	71.689786	0.376093	5.702334	6.351372	3.843481	10.197026	0.167263	-1.531420	-18.474678	3.661110	16.145576	24.684098	2.110982	14.265364	24.146060	15.511006	123.386872	-152.092094	92.202032	-4.293523	-4.314888	54.988547	346.827680	-335.338373	-0.772746	-42.023602	-37.327649	63.180423	-287.604040	180.377682	120.384430	-184.064686	-185.849265	99.700228	4.848668	-28.607516	19.486447	-66.404013	103.302654	69.506544	-331.454127	-348.398596	-0.846467	7.702594	-7.125184	2.921221	-5.538466	42.002172	3.360942	-339.650381	344.168387	-0.602438	
0.300346	33.721427	-0.584712	-10.991896	2.006260	70.727823	0.845906	7.069246	6.343772	0.244809	9.479979	0.003808	0.311314	-18.302951	6.124161	9.532284	24.614748	4.659228	19.717752	29.123144	19.894551	119.166567	-156.203567	91.360239	-1.218988	-2.847699	55.770614	-16.876656	24.598866	1.291882	-40.427393	-38.326359	63.639111	-287.241029	182.551704	118.516237	-184.353740	-187.102058	99.940131	1.478842	-25.394597	17.553285	-324.577902	-291.865341	-29.921292	-336.184442	-347.746368	-2.101693	4.940812	6.428421	0.476443	-4.564365	27.748358	1.420434	-347.443572	355.149282	-3.719995	
0.907457	34.915425	-0.415219	-8.044669	-1.874346	68.988078	4.000667	9.816934	6.375148	357.401031	-349.496781	-0.118029	2.886519	-19.920586	9.408561	4.183291	24.558918	5.776129	23.225096	32.963694	23.348694	115.726870	-157.289581	94.195737	1.261110	-2.813109	56.447988	-18.037988	24.566103	3.970803	-40.978091	-35.883132	64.011083	-285.021682	186.942832	121.781464	-187.797248	-187.077537	99.295061	3.603202	-16.598940	19.274809	-344.283107	-315.507821	-8.249011	26.691675	-4.644392	1.310644	-353.659809	-342.288282	-0.744418	-3.810448	21.329254	0.680981	-353.298847	-352.907832	-7.875239	
1.204081	35.224834	-0.571079	-5.698952	-1.829789	70.293047	3.086431	10.809003	6.226262	356.855682	-347.680388	-0.041823	3.389385	-25.114280	10.230532	3.411783	24.683791	2.699534	22.665955	33.888703	23.423025	114.717054	-153.851318	100.260768	0.103479	-6.432306	56.536961	-14.235022	24.663351	1.635370	-42.794932	-30.411092	64.525191	-284.328145	191.894187	122.307620	-179.601377	172.953567	100.708999	0.230370	-10.291891	17.888132	-349.551559	-330.209448	-2.964009	-353.751552	349.838373	-5.339845	-356.345302	-338.975476	-0.738145	-2.023676	27.269903	0.707881	-345.990736	-348.941842	-11.463054	
1.181367	34.554099	-0.509164	-5.368925	-2.304992	70.367817	2.259377	10.260247	6.239342	-1.524344	15.358061	0.045699	3.442122	-28.928077	10.444301	5.346386	24.707411	2.166162	20.332332	31.034951	20.892109	113.445689	-146.887053	100.426482	0.770805	-4.800419	56.856938	-12.510498	24.698817	1.160524	-38.441748	-22.707189	68.130466	-280.535478	197.810879	123.283955	-175.525489	173.468345	101.173629	0.270701	-9.514490	17.931218	-351.591655	-334.840097	-1.700211	-357.848600	349.767612	-4.847973	-355.876506	-341.661871	-0.604177	-5.279205	43.755929	3.429944	-341.466064	-349.279854	-10.647288	
1.033242	33.274045	-0.628827	-5.300977	-1.568578	71.960078	0.694897	9.213833	6.222769	-359.654502	-340.658080	-0.078306	2.833818	-34.865994	8.475186	-351.748039	-335.226385	-0.596336	17.987444	25.388062	17.881238	110.102202	-137.694055	100.177480	0.234168	-3.422113	57.027351	349.349987	-335.300179	-1.575487	-35.521470	-14.536032	71.136562	84.149766	-156.796263	132.101510	-177.370623	172.530287	101.164429	-0.846844	-12.736770	17.305959	-351.455761	-328.123153	-2.660171	-357.447121	351.348555	-1.102852	-357.206972	-348.649237	-0.085715	-5.867318	64.129710	6.166175	-340.488063	-347.716943	-17.807283	
